{"title":"Dallas Buyers Club (2013) DD5.1 NL Subs DVDSCR-NLU002","uid":9463587,"size":4690375507,"categoryP":"video","categoryS":"movies_dvdr","magnet":"?xt=urn:btih:522a8f8cb7c75930b98083924468ea0f220f648e&amp;dn=Dallas+Buyers+Club+%282013%29+DD5.1+NL+Subs+DVDSCR-NLU002&amp;tr=udp%3A%2F%2Ftracker.openbittorrent.com%3A80&amp;tr=udp%3A%2F%2Fopen.demonii.com%3A1337&amp;tr=udp%3A%2F%2Ftracker.coppersurfer.tk%3A6969&amp;tr=udp%3A%2F%2Fexodus.desync.com%3A6969","seeders":1,"leechers":0,"uploader":"NLUPPER002","files":19,"time":1389400275,"description":"Dallas Buyers Club (2013) DD5.1 NL Subs DVDSCR-NLU002\n.\n[IMG]http://imagizer.imageshack.us/v2/xq90/62/ilc4.jpg[/IMG]\n.\nR  -  117 min  -  Biography | Drama | History  -  22 November 2013 (USA) \nRated R for pervasive language, some strong sexual content, nudity and drug use\n. &lt;a href=&quot;\nhttp://www.imdb.com/title/tt0790636/&quot; rel=&quot;nofollow&quot; target=&quot;_NEW&quot;&gt;\nhttp://www.imdb.com/title/tt0790636/&lt;/a&gt;\n. &lt;a href=&quot;\nhttp://www.moviemeter.nl/film/94722&quot; rel=&quot;nofollow&quot; target=&quot;_NEW&quot;&gt;\nhttp://www.moviemeter.nl/film/94722&lt;/a&gt;\n.\nPLOT\n.\nIn 1985 Dallas, electrician and hustler Ron Woodroof works around the system to help,\nAIDS patients get the medication they need after he is himself diagnosed with the disease. \n.\nSource: Dallas.Buyers.Club.2013.DVDScr.XVID.AC3.HQ.Hive-CM8\nFormat: DVD5\nVideo: NTSC - USA, JAPAN\nAudio: DD5.1 Custom by NLU002\nSubtitles: Dutch White and Yellow\nNL Vertaling:  Sneeuwitje en de Zeven Dwergen\nControlle: Goffini\nMenu: Yes custom menu by NLU002\nProgram Used: TMPG Autoring Works 5 - Retail\n.\nEnjoy\n.\nOverall bit rate                         : 4 839 Kbps\n\nVideo\nID                                       : 224 (0xE0)\nFormat                                   : MPEG Video\nFormat version                           : Version 2\nFormat profile                           : Main@Main\nFormat settings, BVOP                    : Yes\nFormat settings, Matrix                  : Custom\nFormat settings, GOP                     : Variable\nDuration                                 : 10mn 50s\nBit rate mode                            : Variable\nBit rate                                 : 4 358 Kbps\nMaximum bit rate                         : 8 000 Kbps\nWidth                                    : 720 pixels\nHeight                                   : 480 pixels\nDisplay aspect ratio                     : 16:9\nFrame rate                               : 23.976 fps\nStandard                                 : NTSC\nColor space                              : YUV\nChroma subsampling                       : 4:2:0\nBit depth                                : 8 bits\nScan type                                : Progressive\nScan order                               : 2:3 Pulldown\nCompression mode                         : Lossy\nBits/(Pixel*Frame)                       : 0.526\nTime code of first frame                 : 01:46:00:25\nTime code source                         : Group of pictures header\nStream size                              : 338 MiB (90%)\nColor primaries                          : BT.601 NTSC\nTransfer characteristics                 : BT.601\nMatrix coefficients                      : BT.601\n\nAudio\nID                                       : 189 (0xBD)-128 (0x80)\nFormat                                   : AC-3\nFormat/Info                              : Audio Coding 3\nMode extension                           : CM (complete main)\nFormat settings, Endianness              : Big\nMuxing mode                              : DVD-Video\nDuration                                 : 10mn 50s\nBit rate mode                            : Constant\nBit rate                                 : 384 Kbps\nChannel(s)                               : 6 channels\nChannel positions                        : Front: L C R, Side: L R, LFE\nSampling rate                            : 48.0 KHz\nBit depth                                : 16 bits\nCompression mode                         : Lossy\nDelay relative to video                  : -558ms\nStream size                              : 29.8 MiB (8%)\n\n","torrent":{"xt":"urn:btih:522a8f8cb7c75930b98083924468ea0f220f648e","amp;dn":"Dallas+Buyers+Club+%282013%29+DD5.1+NL+Subs+DVDSCR-NLU002","amp;tr":["udp%3A%2F%2Ftracker.openbittorrent.com%3A80","udp%3A%2F%2Fopen.demonii.com%3A1337","udp%3A%2F%2Ftracker.coppersurfer.tk%3A6969","udp%3A%2F%2Fexodus.desync.com%3A6969"],"infoHash":"522a8f8cb7c75930b98083924468ea0f220f648e","infoHashBuffer":{"type":"Buffer","data":[82,42,143,140,183,199,89,48,185,128,131,146,68,104,234,15,34,15,100,142]},"announce":[],"urlList":[]}}